<?xml version="1.0" standalone="no"?>
<!DOCTYPE svg PUBLIC "-//W3C//DTD SVG 20010904//EN"
 "http://www.w3.org/TR/2001/REC-SVG-20010904/DTD/svg10.dtd">
<svg version="1.0" xmlns="http://www.w3.org/2000/svg"
 width="512.000000pt" height="512.000000pt" viewBox="0 0 512.000000 512.000000"
 preserveAspectRatio="xMidYMid meet">
<metadata>
Created by potrace 1.14, written by Peter Selinger 2001-2017
</metadata>
<g transform="translate(0.000000,512.000000) scale(0.100000,-0.100000)"
fill="#000000" stroke="none">
<path d="M2092 5103 c-18 -9 -44 -35 -57 -58 -24 -40 -25 -48 -25 -226 l0
-185 -72 -18 c-284 -72 -587 -227 -843 -431 -487 -388 -793 -938 -869 -1560
-15 -125 -18 -395 -5 -500 4 -38 11 -90 14 -115 4 -37 18 -107 50 -255 6 -27
58 -186 85 -260 29 -79 135 -292 190 -380 269 -432 670 -765 1148 -954 152
-61 367 -118 507 -135 28 -4 66 -9 85 -12 78 -11 404 -14 487 -4 143 17 163
20 268 42 671 137 1274 599 1594 1220 176 342 258 683 259 1073 0 541 -165
1027 -497 1455 -90 117 -306 330 -421 417 -242 182 -492 309 -765 389 l-110
32 -5 195 c-6 218 -9 231 -80 268 -32 18 -65 19 -470 19 -381 0 -439 -2 -468
-17z"/>
</g>
</svg>
